<?xml version="1.0" encoding="UTF-8" standalone="no"?>
<!DOCTYPE svg PUBLIC "-//W3C//DTD SVG 1.1//EN"
 "http://www.w3.org/Graphics/SVG/1.1/DTD/svg11.dtd">
<!-- Generated by graphviz version 2.36.0 (20140111.2315)
 -->
<!-- Title: G Pages: 1 -->
<svg width="782pt" height="1004pt"
 viewBox="0.00 0.00 782.00 1004.00" xmlns="http://www.w3.org/2000/svg" xmlns:xlink="http://www.w3.org/1999/xlink">
<g id="graph0" class="graph" transform="scale(1 1) rotate(0) translate(4 1000)">
<title>G</title>
<polygon fill="white" stroke="none" points="-4,4 -4,-1000 778,-1000 778,4 -4,4"/>
<g id="clust1" class="cluster"><title>cluster_Global</title>
<path fill="none" stroke="gray" d="M364,-152C364,-152 754,-152 754,-152 760,-152 766,-158 766,-164 766,-164 766,-976 766,-976 766,-982 760,-988 754,-988 754,-988 364,-988 364,-988 358,-988 352,-982 352,-976 352,-976 352,-164 352,-164 352,-158 358,-152 364,-152"/>
<text text-anchor="middle" x="559" y="-975.2" font-family="Times,serif" font-size="11.00" fill="gray">Global</text>
</g>
<g id="clust2" class="cluster"><title>cluster_\tests</title>
<path fill="none" stroke="gray" d="M602,-798C602,-798 728,-798 728,-798 734,-798 740,-804 740,-810 740,-810 740,-948 740,-948 740,-954 734,-960 728,-960 728,-960 602,-960 602,-960 596,-960 590,-954 590,-948 590,-948 590,-810 590,-810 590,-804 596,-798 602,-798"/>
<text text-anchor="middle" x="665" y="-947.2" font-family="Times,serif" font-size="11.00" fill="gray">tests</text>
</g>
<g id="clust3" class="cluster"><title>cluster_\tests\Unit</title>
<path fill="none" stroke="gray" d="M610,-806C610,-806 720,-806 720,-806 726,-806 732,-812 732,-818 732,-818 732,-920 732,-920 732,-926 726,-932 720,-932 720,-932 610,-932 610,-932 604,-932 598,-926 598,-920 598,-920 598,-818 598,-818 598,-812 604,-806 610,-806"/>
<text text-anchor="middle" x="665" y="-919.2" font-family="Times,serif" font-size="11.00" fill="gray">Unit</text>
</g>
<!-- \\tests\\Unit\\TranslationTest -->
<g id="node1" class="node"><title>\\tests\\Unit\\TranslationTest</title>
<polygon fill="none" stroke="black" points="724,-904 606,-904 606,-868 724,-868 724,-904"/>
<text text-anchor="middle" x="665" y="-883.2" font-family="Courier,monospace" font-size="11.00">TranslationTest</text>
</g>
<!-- \\UnitTestCase -->
<g id="node11" class="node"><title>\\UnitTestCase</title>
<polygon fill="none" stroke="black" points="458,-877 360,-877 360,-841 458,-841 458,-877"/>
<text text-anchor="start" x="375" y="-862.2" font-family="Courier,monospace" font-size="11.00">«abstract»</text>
<text text-anchor="start" x="368" y="-850.2" font-family="Courier,monospace" font-size="11.00">UnitTestCase</text>
</g>
<!-- \\tests\\Unit\\TranslationTest&#45;&gt;\\UnitTestCase -->
<g id="edge2" class="edge"><title>\\tests\\Unit\\TranslationTest&#45;&gt;\\UnitTestCase</title>
<path fill="none" stroke="black" d="M605.727,-879.806C564.546,-875.428 509.567,-869.584 468.365,-865.204"/>
<polygon fill="none" stroke="black" points="468.518,-861.701 458.204,-864.124 467.778,-868.662 468.518,-861.701"/>
</g>
<!-- \\tests\\Unit\\UsersTest -->
<g id="node2" class="node"><title>\\tests\\Unit\\UsersTest</title>
<polygon fill="none" stroke="black" points="703.5,-850 626.5,-850 626.5,-814 703.5,-814 703.5,-850"/>
<text text-anchor="middle" x="665" y="-829.2" font-family="Courier,monospace" font-size="11.00">UsersTest</text>
</g>
<!-- \\tests\\Unit\\UsersTest&#45;&gt;\\UnitTestCase -->
<g id="edge4" class="edge"><title>\\tests\\Unit\\UsersTest&#45;&gt;\\UnitTestCase</title>
<path fill="none" stroke="black" d="M626.248,-836.013C584.575,-840.443 516.977,-847.628 468.448,-852.787"/>
<polygon fill="none" stroke="black" points="467.972,-849.318 458.398,-853.855 468.712,-856.279 467.972,-849.318"/>
</g>
<!-- \\DefaultTranslation -->
<g id="node3" class="node"><title>\\DefaultTranslation</title>
<polygon fill="none" stroke="black" points="734,-736 596,-736 596,-700 734,-700 734,-736"/>
<text text-anchor="middle" x="665" y="-715.2" font-family="Courier,monospace" font-size="11.00">DefaultTranslation</text>
</g>
<!-- \\Translation -->
<g id="node6" class="node"><title>\\Translation</title>
<polygon fill="none" stroke="black" points="454.5,-763 363.5,-763 363.5,-727 454.5,-727 454.5,-763"/>
<text text-anchor="start" x="375" y="-748.2" font-family="Courier,monospace" font-size="11.00">«abstract»</text>
<text text-anchor="start" x="371.5" y="-736.2" font-family="Courier,monospace" font-size="11.00">Translation</text>
</g>
<!-- \\DefaultTranslation&#45;&gt;\\Translation -->
<g id="edge1" class="edge"><title>\\DefaultTranslation&#45;&gt;\\Translation</title>
<path fill="none" stroke="black" d="M595.933,-725.236C554.79,-729.609 503.044,-735.109 464.595,-739.197"/>
<polygon fill="none" stroke="black" points="464.197,-735.719 454.623,-740.257 464.937,-742.68 464.197,-735.719"/>
</g>
<!-- \\TranslationResults -->
<g id="node4" class="node"><title>\\TranslationResults</title>
<polygon fill="none" stroke="black" points="734,-628 596,-628 596,-592 734,-592 734,-628"/>
<text text-anchor="middle" x="665" y="-607.2" font-family="Courier,monospace" font-size="11.00">TranslationResults</text>
</g>
<!-- \\Phalcon\\Mvc\\Model -->
<g id="node17" class="node"><title>\\Phalcon\\Mvc\\Model</title>
<ellipse fill="none" stroke="black" cx="409" cy="-126" rx="86.3847" ry="18"/>
<text text-anchor="middle" x="409" y="-122.3" font-family="Times,serif" font-size="14.00" fill="gray">\Phalcon\Mvc\Model</text>
</g>
<!-- \\TranslationResults&#45;&gt;\\Phalcon\\Mvc\\Model -->
<g id="edge3" class="edge"><title>\\TranslationResults&#45;&gt;\\Phalcon\\Mvc\\Model</title>
<path fill="none" stroke="black" d="M595.973,-599.704C586.906,-595.751 578.51,-590.353 572,-583 442.096,-436.28 633.224,-291.712 500,-148 497.519,-145.324 494.771,-142.949 491.823,-140.844"/>
<polygon fill="none" stroke="black" points="493.418,-137.72 483.039,-135.595 489.828,-143.729 493.418,-137.72"/>
</g>
<!-- \\TranslationFactory -->
<g id="node5" class="node"><title>\\TranslationFactory</title>
<polygon fill="none" stroke="black" points="734,-682 596,-682 596,-646 734,-646 734,-682"/>
<text text-anchor="middle" x="665" y="-661.2" font-family="Courier,monospace" font-size="11.00">TranslationFactory</text>
</g>
<!-- \\Users -->
<g id="node7" class="node"><title>\\Users</title>
<polygon fill="none" stroke="black" points="692,-574 638,-574 638,-538 692,-538 692,-574"/>
<text text-anchor="middle" x="665" y="-553.2" font-family="Courier,monospace" font-size="11.00">Users</text>
</g>
<!-- \\Users&#45;&gt;\\Phalcon\\Mvc\\Model -->
<g id="edge5" class="edge"><title>\\Users&#45;&gt;\\Phalcon\\Mvc\\Model</title>
<path fill="none" stroke="black" d="M637.946,-555.426C617.086,-553.512 588.651,-547.382 572,-529 456.303,-401.282 618.586,-273.04 500,-148 497.354,-145.21 494.417,-142.749 491.267,-140.58"/>
<polygon fill="none" stroke="black" points="492.892,-137.477 482.484,-135.496 489.385,-143.535 492.892,-137.477"/>
</g>
<!-- \\Token -->
<g id="node8" class="node"><title>\\Token</title>
<polygon fill="none" stroke="black" points="692,-466 638,-466 638,-430 692,-430 692,-466"/>
<text text-anchor="middle" x="665" y="-445.2" font-family="Courier,monospace" font-size="11.00">Token</text>
</g>
<!-- \\Token&#45;&gt;\\Phalcon\\Mvc\\Model -->
<g id="edge6" class="edge"><title>\\Token&#45;&gt;\\Phalcon\\Mvc\\Model</title>
<path fill="none" stroke="black" d="M637.866,-447.067C617.243,-444.924 589.178,-438.659 572,-421 484.503,-331.055 589.53,-235.922 500,-148 497.256,-145.306 494.24,-142.923 491.027,-140.816"/>
<polygon fill="none" stroke="black" points="492.551,-137.66 482.11,-135.864 489.152,-143.779 492.551,-137.66"/>
</g>
<!-- \\OutputHelper -->
<g id="node9" class="node"><title>\\OutputHelper</title>
<polygon fill="none" stroke="black" points="714,-520 616,-520 616,-484 714,-484 714,-520"/>
<text text-anchor="middle" x="665" y="-499.2" font-family="Courier,monospace" font-size="11.00">OutputHelper</text>
</g>
<!-- \\PigLatinTranslation -->
<g id="node10" class="node"><title>\\PigLatinTranslation</title>
<polygon fill="none" stroke="black" points="737.5,-790 592.5,-790 592.5,-754 737.5,-754 737.5,-790"/>
<text text-anchor="middle" x="665" y="-769.2" font-family="Courier,monospace" font-size="11.00">PigLatinTranslation</text>
</g>
<!-- \\PigLatinTranslation&#45;&gt;\\Translation -->
<g id="edge7" class="edge"><title>\\PigLatinTranslation&#45;&gt;\\Translation</title>
<path fill="none" stroke="black" d="M592.232,-764.371C551.87,-760.081 502.264,-754.808 465.005,-750.847"/>
<polygon fill="none" stroke="black" points="465.155,-747.343 454.841,-749.767 464.415,-754.304 465.155,-747.343"/>
</g>
<!-- \\PHPUnit\\Framework\\TestCase -->
<g id="node18" class="node"><title>\\PHPUnit\\Framework\\TestCase</title>
<ellipse fill="none" stroke="black" cx="123" cy="-859" rx="122.678" ry="18"/>
<text text-anchor="middle" x="123" y="-855.3" font-family="Times,serif" font-size="14.00" fill="gray">\PHPUnit\Framework\TestCase</text>
</g>
<!-- \\UnitTestCase&#45;&gt;\\PHPUnit\\Framework\\TestCase -->
<g id="edge8" class="edge"><title>\\UnitTestCase&#45;&gt;\\PHPUnit\\Framework\\TestCase</title>
<path fill="none" stroke="black" d="M359.823,-859C331.182,-859 293.322,-859 256.341,-859"/>
<polygon fill="none" stroke="black" points="255.942,-855.5 245.942,-859 255.942,-862.5 255.942,-855.5"/>
</g>
<!-- \\InvalidRequestException -->
<g id="node12" class="node"><title>\\InvalidRequestException</title>
<polygon fill="none" stroke="black" points="751,-358 579,-358 579,-322 751,-322 751,-358"/>
<text text-anchor="middle" x="665" y="-337.2" font-family="Courier,monospace" font-size="11.00">InvalidRequestException</text>
</g>
<!-- \\Exception -->
<g id="node19" class="node"><title>\\Exception</title>
<ellipse fill="none" stroke="black" cx="409" cy="-72" rx="48.9926" ry="18"/>
<text text-anchor="middle" x="409" y="-68.3" font-family="Times,serif" font-size="14.00" fill="gray">\Exception</text>
</g>
<!-- \\InvalidRequestException&#45;&gt;\\Exception -->
<g id="edge9" class="edge"><title>\\InvalidRequestException&#45;&gt;\\Exception</title>
<path fill="none" stroke="black" d="M583.482,-321.854C579.351,-319.281 575.479,-316.346 572,-313 499.669,-243.442 572.123,-168.774 500,-99 490.656,-89.9605 478.408,-83.9325 465.969,-79.917"/>
<polygon fill="none" stroke="black" points="466.579,-76.4526 456.004,-77.1091 464.68,-83.1902 466.579,-76.4526"/>
</g>
<!-- \\RequestHandler -->
<g id="node13" class="node"><title>\\RequestHandler</title>
<polygon fill="none" stroke="black" points="720.5,-250 609.5,-250 609.5,-214 720.5,-214 720.5,-250"/>
<text text-anchor="middle" x="665" y="-229.2" font-family="Courier,monospace" font-size="11.00">RequestHandler</text>
</g>
<!-- \\Phalcon\\Http\\Request -->
<g id="node20" class="node"><title>\\Phalcon\\Http\\Request</title>
<ellipse fill="none" stroke="black" cx="409" cy="-18" rx="90.1842" ry="18"/>
<text text-anchor="middle" x="409" y="-14.3" font-family="Times,serif" font-size="14.00" fill="gray">\Phalcon\Http\Request</text>
</g>
<!-- \\RequestHandler&#45;&gt;\\Phalcon\\Http\\Request -->
<g id="edge10" class="edge"><title>\\RequestHandler&#45;&gt;\\Phalcon\\Http\\Request</title>
<path fill="none" stroke="black" d="M609.493,-224.252C596.072,-220.25 582.542,-214.185 572,-205 513.205,-153.775 558.641,-96.4008 500,-45 495.442,-41.0046 490.311,-37.6003 484.87,-34.6995"/>
<polygon fill="none" stroke="black" points="486.004,-31.3654 475.465,-30.2778 483.026,-37.7002 486.004,-31.3654"/>
</g>
<!-- \\UserAuthenticationFactory -->
<g id="node14" class="node"><title>\\UserAuthenticationFactory</title>
<polygon fill="none" stroke="black" points="757.5,-304 572.5,-304 572.5,-268 757.5,-268 757.5,-304"/>
<text text-anchor="middle" x="665" y="-283.2" font-family="Courier,monospace" font-size="11.00">UserAuthenticationFactory</text>
</g>
<!-- \\InvalidUserException -->
<g id="node15" class="node"><title>\\InvalidUserException</title>
<polygon fill="none" stroke="black" points="741,-412 589,-412 589,-376 741,-376 741,-412"/>
<text text-anchor="middle" x="665" y="-391.2" font-family="Courier,monospace" font-size="11.00">InvalidUserException</text>
</g>
<!-- \\InvalidUserException&#45;&gt;\\Exception -->
<g id="edge11" class="edge"><title>\\InvalidUserException&#45;&gt;\\Exception</title>
<path fill="none" stroke="black" d="M588.86,-379.424C582.646,-376.086 576.886,-372 572,-367 485.798,-278.792 585.937,-187.466 500,-99 490.941,-89.6748 478.801,-83.539 466.375,-79.5105"/>
<polygon fill="none" stroke="black" points="466.975,-76.0439 456.401,-76.7109 465.083,-82.7834 466.975,-76.0439"/>
</g>
<!-- \\Cacheable -->
<g id="node16" class="node"><title>\\Cacheable</title>
<polygon fill="none" stroke="black" points="703.5,-196 626.5,-196 626.5,-160 703.5,-160 703.5,-196"/>
<text text-anchor="middle" x="665" y="-175.2" font-family="Courier,monospace" font-size="11.00">Cacheable</text>
</g>
</g>
</svg>
