<?xml version="1.0" encoding="UTF-8" standalone="no"?>
<!DOCTYPE svg PUBLIC "-//W3C//DTD SVG 1.1//EN"
 "http://www.w3.org/Graphics/SVG/1.1/DTD/svg11.dtd">
<!-- Generated by graphviz version 2.36.0 (20140111.2315)
 -->
<!-- Title: G Pages: 1 -->
<svg width="791pt" height="1058pt"
 viewBox="0.00 0.00 791.00 1058.00" xmlns="http://www.w3.org/2000/svg" xmlns:xlink="http://www.w3.org/1999/xlink">
<g id="graph0" class="graph" transform="scale(1 1) rotate(0) translate(4 1054)">
<title>G</title>
<polygon fill="white" stroke="none" points="-4,4 -4,-1054 787,-1054 787,4 -4,4"/>
<g id="clust1" class="cluster"><title>cluster_Global</title>
<path fill="none" stroke="gray" d="M364,-152C364,-152 763,-152 763,-152 769,-152 775,-158 775,-164 775,-164 775,-1030 775,-1030 775,-1036 769,-1042 763,-1042 763,-1042 364,-1042 364,-1042 358,-1042 352,-1036 352,-1030 352,-1030 352,-164 352,-164 352,-158 358,-152 364,-152"/>
<text text-anchor="middle" x="563.5" y="-1029.2" font-family="Times,serif" font-size="11.00" fill="gray">Global</text>
</g>
<g id="clust2" class="cluster"><title>cluster_\tests</title>
<path fill="none" stroke="gray" d="M575,-798C575,-798 755,-798 755,-798 761,-798 767,-804 767,-810 767,-810 767,-1002 767,-1002 767,-1008 761,-1014 755,-1014 755,-1014 575,-1014 575,-1014 569,-1014 563,-1008 563,-1002 563,-1002 563,-810 563,-810 563,-804 569,-798 575,-798"/>
<text text-anchor="middle" x="665" y="-1001.2" font-family="Times,serif" font-size="11.00" fill="gray">tests</text>
</g>
<g id="clust3" class="cluster"><title>cluster_\tests\Unit</title>
<path fill="none" stroke="gray" d="M583,-806C583,-806 747,-806 747,-806 753,-806 759,-812 759,-818 759,-818 759,-974 759,-974 759,-980 753,-986 747,-986 747,-986 583,-986 583,-986 577,-986 571,-980 571,-974 571,-974 571,-818 571,-818 571,-812 577,-806 583,-806"/>
<text text-anchor="middle" x="665" y="-973.2" font-family="Times,serif" font-size="11.00" fill="gray">Unit</text>
</g>
<!-- \\tests\\Unit\\UsersTest -->
<g id="node1" class="node"><title>\\tests\\Unit\\UsersTest</title>
<polygon fill="none" stroke="black" points="703.5,-958 626.5,-958 626.5,-922 703.5,-922 703.5,-958"/>
<text text-anchor="middle" x="665" y="-937.2" font-family="Courier,monospace" font-size="11.00">UsersTest</text>
</g>
<!-- \\UnitTestCase -->
<g id="node12" class="node"><title>\\UnitTestCase</title>
<polygon fill="none" stroke="black" points="458,-904 360,-904 360,-868 458,-868 458,-904"/>
<text text-anchor="start" x="375" y="-889.2" font-family="Courier,monospace" font-size="11.00">«abstract»</text>
<text text-anchor="start" x="368" y="-877.2" font-family="Courier,monospace" font-size="11.00">UnitTestCase</text>
</g>
<!-- \\tests\\Unit\\UsersTest&#45;&gt;\\UnitTestCase -->
<g id="edge3" class="edge"><title>\\tests\\Unit\\UsersTest&#45;&gt;\\UnitTestCase</title>
<path fill="none" stroke="black" d="M626.248,-931.974C584.575,-923.114 516.977,-908.743 468.448,-898.426"/>
<polygon fill="none" stroke="black" points="468.908,-894.946 458.398,-896.289 467.452,-901.793 468.908,-894.946"/>
</g>
<!-- \\tests\\Unit\\PigLatinTranslationTest -->
<g id="node2" class="node"><title>\\tests\\Unit\\PigLatinTranslationTest</title>
<polygon fill="none" stroke="black" points="751,-904 579,-904 579,-868 751,-868 751,-904"/>
<text text-anchor="middle" x="665" y="-883.2" font-family="Courier,monospace" font-size="11.00">PigLatinTranslationTest</text>
</g>
<!-- \\tests\\Unit\\PigLatinTranslationTest&#45;&gt;\\UnitTestCase -->
<g id="edge9" class="edge"><title>\\tests\\Unit\\PigLatinTranslationTest&#45;&gt;\\UnitTestCase</title>
<path fill="none" stroke="black" d="M578.715,-886C542.432,-886 501.039,-886 468.334,-886"/>
<polygon fill="none" stroke="black" points="468.038,-882.5 458.038,-886 468.038,-889.5 468.038,-882.5"/>
</g>
<!-- \\tests\\Unit\\DefaultTranslationTest -->
<g id="node3" class="node"><title>\\tests\\Unit\\DefaultTranslationTest</title>
<polygon fill="none" stroke="black" points="747.5,-850 582.5,-850 582.5,-814 747.5,-814 747.5,-850"/>
<text text-anchor="middle" x="665" y="-829.2" font-family="Courier,monospace" font-size="11.00">DefaultTranslationTest</text>
</g>
<!-- \\tests\\Unit\\DefaultTranslationTest&#45;&gt;\\UnitTestCase -->
<g id="edge11" class="edge"><title>\\tests\\Unit\\DefaultTranslationTest&#45;&gt;\\UnitTestCase</title>
<path fill="none" stroke="black" d="M582.235,-849.383C545.172,-857.263 502.197,-866.399 468.446,-873.574"/>
<polygon fill="none" stroke="black" points="467.338,-870.232 458.284,-875.735 468.794,-877.079 467.338,-870.232"/>
</g>
<!-- \\DefaultTranslation -->
<g id="node4" class="node"><title>\\DefaultTranslation</title>
<polygon fill="none" stroke="black" points="734,-736 596,-736 596,-700 734,-700 734,-736"/>
<text text-anchor="middle" x="665" y="-715.2" font-family="Courier,monospace" font-size="11.00">DefaultTranslation</text>
</g>
<!-- \\Translation -->
<g id="node7" class="node"><title>\\Translation</title>
<polygon fill="none" stroke="black" points="454.5,-763 363.5,-763 363.5,-727 454.5,-727 454.5,-763"/>
<text text-anchor="start" x="375" y="-748.2" font-family="Courier,monospace" font-size="11.00">«abstract»</text>
<text text-anchor="start" x="371.5" y="-736.2" font-family="Courier,monospace" font-size="11.00">Translation</text>
</g>
<!-- \\DefaultTranslation&#45;&gt;\\Translation -->
<g id="edge1" class="edge"><title>\\DefaultTranslation&#45;&gt;\\Translation</title>
<path fill="none" stroke="black" d="M595.933,-725.236C554.79,-729.609 503.044,-735.109 464.595,-739.197"/>
<polygon fill="none" stroke="black" points="464.197,-735.719 454.623,-740.257 464.937,-742.68 464.197,-735.719"/>
</g>
<!-- \\TranslationResults -->
<g id="node5" class="node"><title>\\TranslationResults</title>
<polygon fill="none" stroke="black" points="734,-628 596,-628 596,-592 734,-592 734,-628"/>
<text text-anchor="middle" x="665" y="-607.2" font-family="Courier,monospace" font-size="11.00">TranslationResults</text>
</g>
<!-- \\Phalcon\\Mvc\\Model -->
<g id="node18" class="node"><title>\\Phalcon\\Mvc\\Model</title>
<ellipse fill="none" stroke="black" cx="409" cy="-126" rx="86.3847" ry="18"/>
<text text-anchor="middle" x="409" y="-122.3" font-family="Times,serif" font-size="14.00" fill="gray">\Phalcon\Mvc\Model</text>
</g>
<!-- \\TranslationResults&#45;&gt;\\Phalcon\\Mvc\\Model -->
<g id="edge2" class="edge"><title>\\TranslationResults&#45;&gt;\\Phalcon\\Mvc\\Model</title>
<path fill="none" stroke="black" d="M595.93,-603.343C583.471,-599.176 571.683,-592.767 563,-583 433.207,-437.001 631.353,-292.597 500,-148 497.546,-145.299 494.821,-142.904 491.89,-140.781"/>
<polygon fill="none" stroke="black" points="493.516,-137.674 483.147,-135.496 489.894,-143.665 493.516,-137.674"/>
</g>
<!-- \\TranslationFactory -->
<g id="node6" class="node"><title>\\TranslationFactory</title>
<polygon fill="none" stroke="black" points="734,-682 596,-682 596,-646 734,-646 734,-682"/>
<text text-anchor="middle" x="665" y="-661.2" font-family="Courier,monospace" font-size="11.00">TranslationFactory</text>
</g>
<!-- \\Users -->
<g id="node8" class="node"><title>\\Users</title>
<polygon fill="none" stroke="black" points="692,-574 638,-574 638,-538 692,-538 692,-574"/>
<text text-anchor="middle" x="665" y="-553.2" font-family="Courier,monospace" font-size="11.00">Users</text>
</g>
<!-- \\Users&#45;&gt;\\Phalcon\\Mvc\\Model -->
<g id="edge4" class="edge"><title>\\Users&#45;&gt;\\Phalcon\\Mvc\\Model</title>
<path fill="none" stroke="black" d="M637.619,-556.417C614.515,-555.268 581.78,-549.703 563,-529 447.686,-401.876 616.672,-273.878 500,-148 497.519,-145.324 494.771,-142.949 491.823,-140.843"/>
<polygon fill="none" stroke="black" points="493.419,-137.719 483.04,-135.594 489.829,-143.728 493.419,-137.719"/>
</g>
<!-- \\Token -->
<g id="node9" class="node"><title>\\Token</title>
<polygon fill="none" stroke="black" points="692,-466 638,-466 638,-430 692,-430 692,-466"/>
<text text-anchor="middle" x="665" y="-445.2" font-family="Courier,monospace" font-size="11.00">Token</text>
</g>
<!-- \\Token&#45;&gt;\\Phalcon\\Mvc\\Model -->
<g id="edge5" class="edge"><title>\\Token&#45;&gt;\\Phalcon\\Mvc\\Model</title>
<path fill="none" stroke="black" d="M637.925,-448.13C615.026,-446.79 582.422,-441.102 563,-421 476.478,-331.447 587.479,-236.619 500,-148 497.299,-145.263 494.317,-142.846 491.131,-140.712"/>
<polygon fill="none" stroke="black" points="492.699,-137.578 482.272,-135.701 489.253,-143.671 492.699,-137.578"/>
</g>
<!-- \\OutputHelper -->
<g id="node10" class="node"><title>\\OutputHelper</title>
<polygon fill="none" stroke="black" points="714,-520 616,-520 616,-484 714,-484 714,-520"/>
<text text-anchor="middle" x="665" y="-499.2" font-family="Courier,monospace" font-size="11.00">OutputHelper</text>
</g>
<!-- \\PigLatinTranslation -->
<g id="node11" class="node"><title>\\PigLatinTranslation</title>
<polygon fill="none" stroke="black" points="737.5,-790 592.5,-790 592.5,-754 737.5,-754 737.5,-790"/>
<text text-anchor="middle" x="665" y="-769.2" font-family="Courier,monospace" font-size="11.00">PigLatinTranslation</text>
</g>
<!-- \\PigLatinTranslation&#45;&gt;\\Translation -->
<g id="edge6" class="edge"><title>\\PigLatinTranslation&#45;&gt;\\Translation</title>
<path fill="none" stroke="black" d="M592.232,-764.371C551.87,-760.081 502.264,-754.808 465.005,-750.847"/>
<polygon fill="none" stroke="black" points="465.155,-747.343 454.841,-749.767 464.415,-754.304 465.155,-747.343"/>
</g>
<!-- \\PHPUnit\\Framework\\TestCase -->
<g id="node19" class="node"><title>\\PHPUnit\\Framework\\TestCase</title>
<ellipse fill="none" stroke="black" cx="123" cy="-886" rx="122.678" ry="18"/>
<text text-anchor="middle" x="123" y="-882.3" font-family="Times,serif" font-size="14.00" fill="gray">\PHPUnit\Framework\TestCase</text>
</g>
<!-- \\UnitTestCase&#45;&gt;\\PHPUnit\\Framework\\TestCase -->
<g id="edge7" class="edge"><title>\\UnitTestCase&#45;&gt;\\PHPUnit\\Framework\\TestCase</title>
<path fill="none" stroke="black" d="M359.823,-886C331.182,-886 293.322,-886 256.341,-886"/>
<polygon fill="none" stroke="black" points="255.942,-882.5 245.942,-886 255.942,-889.5 255.942,-882.5"/>
</g>
<!-- \\InvalidRequestException -->
<g id="node13" class="node"><title>\\InvalidRequestException</title>
<polygon fill="none" stroke="black" points="751,-358 579,-358 579,-322 751,-322 751,-358"/>
<text text-anchor="middle" x="665" y="-337.2" font-family="Courier,monospace" font-size="11.00">InvalidRequestException</text>
</g>
<!-- \\Exception -->
<g id="node20" class="node"><title>\\Exception</title>
<ellipse fill="none" stroke="black" cx="409" cy="-72" rx="48.9926" ry="18"/>
<text text-anchor="middle" x="409" y="-68.3" font-family="Times,serif" font-size="14.00" fill="gray">\Exception</text>
</g>
<!-- \\InvalidRequestException&#45;&gt;\\Exception -->
<g id="edge8" class="edge"><title>\\InvalidRequestException&#45;&gt;\\Exception</title>
<path fill="none" stroke="black" d="M578.795,-324.559C573.038,-321.375 567.678,-317.562 563,-313 492.019,-243.777 569.927,-169.288 500,-99 490.831,-89.7835 478.648,-83.6887 466.217,-79.6651"/>
<polygon fill="none" stroke="black" points="466.821,-76.1994 456.247,-76.8624 464.927,-82.9382 466.821,-76.1994"/>
</g>
<!-- \\RequestHandler -->
<g id="node14" class="node"><title>\\RequestHandler</title>
<polygon fill="none" stroke="black" points="720.5,-250 609.5,-250 609.5,-214 720.5,-214 720.5,-250"/>
<text text-anchor="middle" x="665" y="-229.2" font-family="Courier,monospace" font-size="11.00">RequestHandler</text>
</g>
<!-- \\Phalcon\\Http\\Request -->
<g id="node21" class="node"><title>\\Phalcon\\Http\\Request</title>
<ellipse fill="none" stroke="black" cx="409" cy="-18" rx="90.1842" ry="18"/>
<text text-anchor="middle" x="409" y="-14.3" font-family="Times,serif" font-size="14.00" fill="gray">\Phalcon\Http\Request</text>
</g>
<!-- \\RequestHandler&#45;&gt;\\Phalcon\\Http\\Request -->
<g id="edge10" class="edge"><title>\\RequestHandler&#45;&gt;\\Phalcon\\Http\\Request</title>
<path fill="none" stroke="black" d="M609.409,-226.954C592.912,-223.086 575.799,-216.418 563,-205 505.971,-154.123 556.253,-96.7338 500,-45 495.615,-40.9677 490.651,-37.5364 485.36,-34.6167"/>
<polygon fill="none" stroke="black" points="486.719,-31.386 476.194,-30.1702 483.664,-37.684 486.719,-31.386"/>
</g>
<!-- \\UserAuthenticationFactory -->
<g id="node15" class="node"><title>\\UserAuthenticationFactory</title>
<polygon fill="none" stroke="black" points="757.5,-304 572.5,-304 572.5,-268 757.5,-268 757.5,-304"/>
<text text-anchor="middle" x="665" y="-283.2" font-family="Courier,monospace" font-size="11.00">UserAuthenticationFactory</text>
</g>
<!-- \\InvalidUserException -->
<g id="node16" class="node"><title>\\InvalidUserException</title>
<polygon fill="none" stroke="black" points="741,-412 589,-412 589,-376 741,-376 741,-412"/>
<text text-anchor="middle" x="665" y="-391.2" font-family="Courier,monospace" font-size="11.00">InvalidUserException</text>
</g>
<!-- \\InvalidUserException&#45;&gt;\\Exception -->
<g id="edge12" class="edge"><title>\\InvalidUserException&#45;&gt;\\Exception</title>
<path fill="none" stroke="black" d="M588.851,-383.881C579.207,-379.883 570.204,-374.426 563,-367 477.802,-279.178 583.86,-188.1 500,-99 491.09,-89.533 479.005,-83.3436 466.586,-79.3087"/>
<polygon fill="none" stroke="black" points="467.182,-75.841 456.608,-76.5132 465.293,-82.5814 467.182,-75.841"/>
</g>
<!-- \\Cacheable -->
<g id="node17" class="node"><title>\\Cacheable</title>
<polygon fill="none" stroke="black" points="703.5,-196 626.5,-196 626.5,-160 703.5,-160 703.5,-196"/>
<text text-anchor="middle" x="665" y="-175.2" font-family="Courier,monospace" font-size="11.00">Cacheable</text>
</g>
</g>
</svg>
